<svg width="1169" height="361" viewBox="0 0 1169 361" fill="none" xmlns="http://www.w3.org/2000/svg">
<path d="M234.688 225.875C234.688 225.875 234.979 225.875 235.562 225.875C236.188 225.875 236.917 225.875 237.75 225.875C238.625 225.875 239.438 225.875 240.188 225.875C240.979 225.875 241.583 225.875 242 225.875C238.875 235.833 232.917 243.625 224.125 249.25C216.417 253.708 208.375 255.271 200 253.938C191.625 252.604 184.354 248.75 178.188 242.375C172.271 235.917 168.625 228.417 167.25 219.875C165.875 211.292 166.875 202.979 170.25 194.938C173.625 186.854 179 180.438 186.375 175.688C190.042 173.438 194 171.875 198.25 171C202.917 170.167 207.604 170.125 212.312 170.875C219.938 172.458 226.417 176 231.75 181.5C237.125 186.958 240.833 193.396 242.875 200.812C242.042 200.812 238.854 200.812 233.312 200.812C227.771 200.812 221.396 200.812 214.188 200.812C206.979 200.812 200.333 200.812 194.25 200.812C188.167 200.812 183.938 200.812 181.562 200.812C181.521 206.979 182.417 213 184.25 218.875C184.25 218.875 184.271 218.938 184.312 219.062C184.354 219.188 184.396 219.354 184.438 219.562C184.521 219.729 184.583 219.896 184.625 220.062C184.708 220.229 184.75 220.375 184.75 220.5C184.792 220.625 184.812 220.688 184.812 220.688C186.271 225.021 188.208 229.167 190.625 233.125C193.083 237.042 196.062 240.521 199.562 243.562C202.396 245.979 205.625 247.812 209.25 249.062C212.875 250.271 216.542 250.25 220.25 249C220.625 248.875 221 248.729 221.375 248.562C221.375 248.521 221.375 248.5 221.375 248.5C222.5 247.958 223.583 247.333 224.625 246.625C230.25 242.25 233.604 235.333 234.688 225.875ZM181.625 198.938H233.688C231.896 192.479 228.792 186.708 224.375 181.625C222.458 179.417 220.271 177.521 217.812 175.938C215.396 174.354 212.75 173.271 209.875 172.688C204.125 171.688 198.625 172.396 193.375 174.812C189.125 177.188 186.125 180.646 184.375 185.188C182.667 189.729 181.75 194.312 181.625 198.938ZM230.125 274.875C232.417 274.667 234.625 274.354 236.75 273.938C238.917 273.521 240.688 272.917 242.062 272.125C243.479 271.292 244.188 270.25 244.188 269C244.188 270.25 244.188 271.479 244.188 272.688C244.188 273.312 244.188 273.938 244.188 274.562C244.188 275.479 244.188 276.417 244.188 277.375C243.021 277.375 236.729 277.375 225.312 277.375C213.938 277.375 201.042 277.375 186.625 277.375C172.208 277.375 159.604 277.375 148.812 277.375C138.021 277.375 132.062 277.375 130.938 277.375C131.938 277.375 132.729 277 133.312 276.25C133.938 275.5 134.417 274.708 134.75 273.875C135.958 270.833 136.667 267.604 136.875 264.188C137.083 260.771 137.125 257.375 137 254C136.958 252.542 136.938 251.146 136.938 249.812C136.938 247.188 136.938 240.771 136.938 230.562C136.938 218.729 136.938 205.208 136.938 190C136.979 174.792 136.979 161.354 136.938 149.688C136.938 138.021 136.938 131.583 136.938 130.375C136.896 128.5 136.771 126.646 136.562 124.812C136.521 124.688 136.5 124.542 136.5 124.375C136.375 123.167 136.146 121.729 135.812 120.062C135.479 118.354 134.938 116.833 134.188 115.5C133.438 114.125 132.354 113.438 130.938 113.438H162.312C161.354 113.438 160.562 113.812 159.938 114.562C159.312 115.271 158.812 116.125 158.438 117.125C158.104 118.083 157.833 118.958 157.625 119.75C156.875 123.125 156.438 126.542 156.312 130C156.271 131 156.25 131.979 156.25 132.938C156.25 133.604 156.25 138.479 156.25 147.562C156.25 156.604 156.25 167.542 156.25 180.375C156.25 193.208 156.25 205.958 156.25 218.625C156.25 232.75 156.25 243.833 156.25 251.875C156.25 255.292 156.25 257.229 156.25 257.688C156.25 260.479 156.375 263.417 156.625 266.5C156.917 269.542 157.729 272.333 159.062 274.875H230.125ZM321.058 262.25C322.433 264.583 323.933 266.896 325.558 269.188C327.224 271.438 328.87 273.333 330.495 274.875C332.162 276.417 333.703 277.188 335.12 277.188H307.245L282.183 231.75L257.12 277.188H254.245L280.745 229.125L255.058 182.562C253.641 180.188 252.099 177.854 250.433 175.562C248.808 173.229 247.162 171.292 245.495 169.75C243.828 168.167 242.287 167.375 240.87 167.375H268.683L291.808 209.188L314.87 167.375H317.745L293.183 211.75L321.058 262.25ZM347.178 249.375V215.375V203.25C347.178 200.208 347.094 197.562 346.928 195.312C346.803 193.021 346.615 191.083 346.365 189.5C346.115 187.875 345.823 186.542 345.49 185.5C345.198 184.417 344.865 183.583 344.49 183C344.157 182.375 343.823 181.917 343.49 181.625C343.198 181.333 342.907 181.167 342.615 181.125C342.365 181.042 342.136 181.021 341.928 181.062C341.761 181.062 341.678 181.083 341.678 181.125L347.178 178.062L366.49 167.375V215.375V249.375V258.688C366.532 261.271 366.74 263.979 367.115 266.812C367.49 269.604 368.094 272.021 368.928 274.062C369.803 276.062 371.011 277.062 372.553 277.062H341.178C342.594 277.062 343.719 276.229 344.553 274.562C345.386 272.854 345.99 270.771 346.365 268.312C346.782 265.812 347.053 263.312 347.178 260.812V249.375ZM354.053 154.625C350.928 154.625 348.24 153.521 345.99 151.312C343.782 149.062 342.678 146.375 342.678 143.25C342.678 140.125 343.782 137.458 345.99 135.25C348.24 133 350.928 131.875 354.053 131.875C357.178 131.875 359.844 133 362.053 135.25C364.303 137.458 365.428 140.125 365.428 143.25C365.428 146.375 364.303 149.062 362.053 151.312C359.844 153.521 357.178 154.625 354.053 154.625ZM481.735 183.938C490.777 193.104 496.068 204.083 497.61 216.875C498.735 228.333 496.693 239.021 491.485 248.938C486.277 258.812 478.631 266.521 468.548 272.062C457.756 277.604 446.506 279.521 434.798 277.812C423.089 276.146 412.818 271.167 403.985 262.875C403.985 263.417 403.985 265.167 403.985 268.125C403.985 272.583 403.985 278.104 403.985 284.688C403.985 291.312 403.985 297.354 403.985 302.812C403.985 308.271 403.985 311.479 403.985 312.438C404.027 316.438 404.464 320.375 405.298 324.25C405.506 325.083 405.777 326 406.11 327C406.485 328 406.985 328.896 407.61 329.688C408.235 330.479 409.068 330.875 410.11 330.875H378.673C379.548 330.875 380.256 330.583 380.798 330C381.381 329.417 381.839 328.75 382.173 328C383.256 325.75 383.943 323.292 384.235 320.625C384.568 318 384.735 315.438 384.735 312.938C384.735 312.479 384.735 310.354 384.735 306.562C384.735 298.312 384.735 286.5 384.735 271.125C384.735 255.75 384.735 241.292 384.735 227.75C384.735 214.208 384.735 206 384.735 203.125C384.735 202.625 384.735 202.125 384.735 201.625C384.777 198.667 384.673 195.646 384.423 192.562C384.214 189.438 383.61 186.5 382.61 183.75C382.443 183.333 382.193 182.833 381.86 182.25C381.568 181.667 381.193 181.208 380.735 180.875C380.277 180.5 379.756 180.438 379.173 180.688C385.798 177.021 392.423 173.354 399.048 169.688C400.714 168.771 402.36 167.854 403.985 166.938V183.312C408.61 178.854 413.839 175.292 419.673 172.625C430.339 167.917 441.256 166.604 452.423 168.688C463.631 170.729 473.402 175.812 481.735 183.938ZM442.548 276C445.131 276 447.652 275.812 450.11 275.438C455.277 272.771 459.631 269.125 463.173 264.5C466.714 259.875 469.464 254.854 471.423 249.438C475.423 238.521 476.735 227.062 475.36 215.062C473.985 203.062 469.673 192.438 462.423 183.188C459.548 179.604 456.006 176.521 451.798 173.938C447.631 171.312 443.173 170.104 438.423 170.312C424.881 171.562 413.402 177.104 403.985 186.938V259.25C409.027 264.583 414.902 268.708 421.61 271.625C428.318 274.542 435.298 276 442.548 276ZM581.293 115.562V164.188H606.73V166.688H581.293V258.125C581.334 262.375 581.834 266.521 582.793 270.562C586.668 272.771 590.855 273.875 595.355 273.875C596.105 273.875 596.876 273.833 597.668 273.75V276.25C596.876 276.333 596.105 276.375 595.355 276.375C591.397 276.375 587.626 275.562 584.043 273.938C577.834 271.146 572.73 266.583 568.73 260.25C564.772 253.917 562.522 246.562 561.98 238.188C561.938 237.312 561.918 236.396 561.918 235.438C561.918 235.229 561.918 231.625 561.918 224.625C561.918 217.583 561.918 209.625 561.918 200.75C561.959 191.875 561.98 183.979 561.98 177.062C561.98 170.146 561.98 166.688 561.98 166.688H538.355V164.188H561.98V148.5C561.98 145.417 561.897 142.75 561.73 140.5C561.605 138.208 561.418 136.271 561.168 134.688C560.918 133.062 560.626 131.729 560.293 130.688C560.001 129.604 559.668 128.771 559.293 128.188C558.959 127.562 558.626 127.104 558.293 126.812C558.001 126.521 557.709 126.354 557.418 126.312C557.168 126.229 556.938 126.208 556.73 126.25C556.563 126.292 556.459 126.312 556.418 126.312L561.98 123.312L572.48 117.5L575.605 115.75L581.105 112.688C584.438 110.271 587.126 107.354 589.168 103.938C591.209 100.479 592.334 96.7708 592.543 92.8125C592.751 87.5208 591.376 82.4792 588.418 77.6875C585.501 72.8542 581.397 68.875 576.105 65.75C565.438 60 553.647 58.6667 540.73 61.75C529.147 64.875 519.418 71.1875 511.543 80.6875C504.376 89.8542 500.501 100.062 499.918 111.312C499.334 122.521 502.001 133.021 507.918 142.812C508.084 139.688 509.251 137.083 511.418 135C513.584 132.875 516.209 131.812 519.293 131.812C522.418 131.812 525.084 132.917 527.293 135.125C529.543 137.333 530.668 140.021 530.668 143.188C530.668 146.312 529.543 148.979 527.293 151.188C525.084 153.396 522.418 154.5 519.293 154.5C516.251 154.5 513.626 153.458 511.418 151.375L511.293 151.5C502.459 141.25 497.793 129.271 497.293 115.562C497.126 101.854 501.23 89.7083 509.605 79.125C517.813 69.1667 527.98 62.5625 540.105 59.3125C553.688 56.1042 566.084 57.5417 577.293 63.625C583.043 66.9583 587.48 71.2292 590.605 76.4375C593.772 81.6458 595.251 87.1458 595.043 92.9375C594.751 97.5208 593.376 101.792 590.918 105.75C588.501 109.708 585.293 112.979 581.293 115.562ZM531.668 258.562C531.751 261.188 531.98 263.917 532.355 266.75C532.73 269.542 533.334 271.958 534.168 274C535.043 276 536.251 277 537.793 277H506.418C507.834 277 508.959 276.146 509.793 274.438C510.626 272.729 511.23 270.646 511.605 268.188C512.022 265.688 512.293 263.188 512.418 260.688V249.25V215.25V203.188C512.418 200.104 512.334 197.438 512.168 195.188C512.043 192.896 511.855 190.958 511.605 189.375C511.355 187.75 511.063 186.417 510.73 185.375C510.397 184.292 510.063 183.458 509.73 182.875C509.397 182.25 509.063 181.792 508.73 181.5C508.397 181.208 508.105 181.042 507.855 181C507.605 180.917 507.376 180.896 507.168 180.938C507.001 180.979 506.897 181 506.855 181L512.418 178L531.668 167.312V215.25V249.25V258.562ZM673.9 181.46C673.9 168.54 665.91 159.7 653.5 159.7C643.81 159.7 633.44 162.42 625.96 173.64L624.94 172.79C633.27 159.87 645.85 156.47 656.05 156.47C676.79 156.47 691.75 163.95 691.75 181.46C691.75 196.76 677.13 203.56 660.64 205.6C679.34 207.98 699.91 216.65 699.91 240.79C699.91 268.5 674.41 278.87 653.67 278.87C642.28 278.87 628.51 274.79 620.01 262.55L620.86 261.7C630.55 273.26 639.56 275.64 651.29 275.64C667.95 275.64 678.15 259.83 678.15 240.79C678.15 214.78 660.81 206.28 649.25 206.28V204.92C660.81 204.92 673.9 200.16 673.9 181.46ZM719.977 271.22C719.977 225.49 777.267 224.13 777.267 185.2C777.267 173.47 771.997 159.7 756.187 159.7C744.627 159.7 734.597 162.08 722.697 173.64L721.677 172.79C732.047 161.74 744.117 156.47 758.567 156.47C779.477 156.47 799.027 166.16 799.027 185.2C799.027 223.45 735.787 224.64 724.567 255.41H797.667V277H719.977V271.22ZM867.179 199.48L867.349 199.65C882.139 199.65 905.429 209.68 905.429 239.09C905.429 259.32 891.489 278.7 864.289 278.7C835.729 278.7 820.429 260.51 820.429 223.28C820.429 185.88 848.479 161.23 874.659 156.47V158C859.699 161.74 844.569 175.85 842.869 213.42C846.779 205.77 856.809 199.48 867.179 199.48ZM864.289 277.51C872.789 277.51 882.819 264.25 882.819 239.43C882.819 219.37 879.079 202.54 862.079 202.54C854.429 202.54 846.609 209.34 843.039 217.16C842.869 219.88 842.869 220.05 842.869 223.11C842.869 269.35 855.789 277.51 864.289 277.51ZM987.983 207.3C1005.32 217.5 1023.85 226.85 1023.85 244.36C1023.85 265.1 1008.38 278.7 979.653 278.7C949.733 278.7 928.823 265.1 928.823 245.89C928.823 229.91 941.573 219.71 958.743 216.65C946.673 207.47 938.003 198.97 938.003 185.37C938.003 166.67 954.833 156.3 974.893 156.3C1000.22 156.3 1012.29 168.88 1012.29 181.97C1012.29 192.17 1005.32 203.22 987.983 207.3ZM979.653 277.51V277.34C997.503 277.34 1006.85 269.18 1006.85 257.45C1006.85 239.94 983.053 231.44 963.673 220.05C955.173 226.34 951.093 235.18 951.093 249.46C951.093 267.82 963.843 277.51 979.653 277.51ZM985.773 205.77H985.603C992.403 198.63 997.163 192.34 997.163 180.61C997.163 169.05 989.003 157.66 974.893 157.66C962.313 157.66 954.153 166.33 954.153 174.49C954.153 191.15 969.453 198.97 985.773 205.77Z" fill="url(#paint0_linear_375_113)"/>
<defs>
<linearGradient id="paint0_linear_375_113" x1="1016.5" y1="264.5" x2="133.209" y2="-14.6217" gradientUnits="userSpaceOnUse">
<stop stop-color="#97DDE8"/>
<stop offset="0.567308" stop-color="#134D80"/>
<stop offset="1" stop-color="#082026"/>
</linearGradient>
</defs>
</svg>
