<svg xmlns="http://www.w3.org/2000/svg" width="637" height="317" viewBox="0 0 637 317"><path d="M0.39922 0.0102969C0.635796 -0.0383174 0.868081 0.0894775 0.959494 0.303555L0.989753 0.40033L1.28648 1.77669C6.33755 24.0859 21.7941 41.5074 38.4969 51.7898C40.2395 44.35 44.8802 37.1759 50.698 31.5424C57.913 24.5558 67.0423 19.8371 74.9001 19.9616C78.846 20.0242 82.4789 21.3105 85.3569 24.1523C88.2287 26.988 90.3056 31.3292 91.231 37.4251C92.1554 43.5147 91.6227 48.4838 89.9172 52.3842C88.2082 56.2922 85.3363 59.091 81.6536 60.8544C74.3156 64.3681 63.7961 63.762 52.7663 59.8173C48.2832 58.214 43.6985 56.0527 39.187 53.3764C38.951 54.6609 38.8052 55.9484 38.7634 57.2327C38.4736 66.1312 43.0577 74.9739 55.841 81.3532C81.5994 94.2074 103.95 96.1472 121.147 95.6622C129.764 95.4191 137.055 94.57 142.902 94.1724C145.814 93.9744 148.372 93.8886 150.531 94.0551C152.685 94.2213 154.493 94.6418 155.872 95.4941C160.949 98.6308 171.023 103.42 181.741 113.383C192.471 123.358 203.86 138.522 211.691 162.458L211.696 162.476L212.762 160.366L212.824 160.306L213.169 160.669C212.857 160.341 212.827 160.309 212.824 160.306L212.833 160.298C212.838 160.293 212.846 160.285 212.856 160.276C212.877 160.256 212.909 160.226 212.95 160.188C213.032 160.11 213.155 159.997 213.316 159.848C213.638 159.552 214.115 159.118 214.733 158.569C215.971 157.47 217.779 155.908 220.064 154.051C224.633 150.337 231.114 145.44 238.758 140.71C254.021 131.265 274.028 122.419 292.745 125.123L293.354 125.211L268.513 193.459L268.377 193.829L267.986 193.784H267.984C267.982 193.784 267.979 193.784 267.976 193.783C267.969 193.783 267.959 193.781 267.946 193.779C267.918 193.776 267.877 193.772 267.822 193.767C267.712 193.755 267.547 193.738 267.331 193.719C266.898 193.68 266.259 193.627 265.434 193.575C263.785 193.471 261.396 193.369 258.445 193.377C252.543 193.392 244.398 193.847 235.428 195.604C218.109 198.997 197.773 207.233 184.519 226.472C185.815 225.622 187.682 224.456 190.061 223.12C194.991 220.35 202.123 216.846 210.937 213.898C228.459 208.038 252.649 204.378 279.41 213.097L298.358 146.078H287.798L287.753 145.079L304.575 143.554L282.183 222.391L282.036 222.912L281.528 222.722H281.526L281.487 222.707C281.459 222.697 281.415 222.681 281.358 222.66C281.244 222.619 281.073 222.558 280.848 222.48C280.398 222.323 279.732 222.096 278.87 221.819C277.147 221.264 274.642 220.507 271.524 219.696C265.286 218.073 256.596 216.237 246.784 215.389C228.041 213.767 205.297 215.75 187.705 229.566C189.323 228.938 191.545 228.119 194.263 227.225C200.253 225.257 208.657 222.921 218.309 221.455C237.432 218.551 261.538 219.052 281.468 232.683L311.221 157.502C311.211 157.495 311.201 157.488 311.19 157.481C310.968 157.321 310.652 157.092 310.275 156.816C309.521 156.264 308.521 155.522 307.544 154.764C306.569 154.009 305.606 153.229 304.929 152.602C304.594 152.293 304.308 152 304.126 151.757C304.041 151.641 303.945 151.494 303.9 151.334C303.876 151.251 303.857 151.129 303.89 150.992C303.927 150.841 304.017 150.714 304.142 150.631L304.232 150.582C304.32 150.542 304.405 150.528 304.467 150.522C304.555 150.514 304.642 150.518 304.72 150.527C304.876 150.545 305.055 150.588 305.241 150.643C305.617 150.754 306.096 150.937 306.631 151.162C307.705 151.614 309.061 152.26 310.385 152.916C311.711 153.573 313.014 154.246 313.984 154.754C314.469 155.007 314.872 155.22 315.153 155.369C315.294 155.444 315.404 155.503 315.479 155.543C315.517 155.564 315.546 155.579 315.565 155.589C315.575 155.595 315.583 155.598 315.588 155.601C315.59 155.602 315.592 155.603 315.593 155.604L315.594 155.605C315.594 155.605 315.595 155.605 315.359 156.046L315.594 155.605L315.968 155.806L284.261 248.768L283.692 248.15L283.691 248.149C283.69 248.148 283.689 248.147 283.687 248.145C283.683 248.14 283.677 248.134 283.669 248.125C283.652 248.107 283.626 248.08 283.591 248.044C283.522 247.972 283.418 247.864 283.278 247.724C282.999 247.444 282.579 247.036 282.022 246.526C280.907 245.505 279.24 244.077 277.046 242.458C272.656 239.22 266.154 235.22 257.713 232.177C242.809 226.803 221.827 224.402 195.696 234.507C200.642 236.337 206.601 240.29 214.482 247.441C216.307 249.097 218.58 251.87 221.286 255.281C224.003 258.707 227.177 262.801 230.829 267.145C238.133 275.832 247.322 285.484 258.479 292.665C269.629 299.842 282.732 304.543 297.881 303.357C313.033 302.171 330.294 295.089 349.748 278.586C369.304 261.995 387.382 252.74 404.429 248.905C421.48 245.069 437.466 246.663 452.822 251.717C483.489 261.812 511.705 285.742 540.926 307.777C548.175 313.244 555.192 315.744 561.828 315.98C568.465 316.215 574.764 314.187 580.58 310.523C592.226 303.186 601.888 289.313 608.29 274.149C610.965 267.812 613.061 261.266 614.497 254.898C610.115 250.784 605.558 246.624 601.332 242.576C597.284 238.698 593.545 234.926 590.582 231.413C587.626 227.909 585.407 224.621 584.446 221.712C583.964 220.252 583.79 218.861 584.019 217.573C584.251 216.277 584.886 215.12 585.964 214.131C588.093 212.176 591.933 210.886 597.809 210.316C603.803 209.735 608.374 211.566 611.613 215.169C614.832 218.748 616.689 224.024 617.397 230.261C618.203 237.37 617.522 245.798 615.597 254.559C619.493 258.225 623.246 261.857 626.482 265.331C629.982 269.088 632.907 272.69 634.774 275.98C636.632 279.254 637.499 282.32 636.707 284.954L636.668 285.048C636.557 285.253 636.315 285.359 636.084 285.29C635.82 285.21 635.67 284.931 635.749 284.666L635.809 284.455C636.376 282.26 635.665 279.577 633.904 276.474C632.095 273.286 629.233 269.752 625.751 266.014C622.646 262.68 619.07 259.207 615.342 255.693C613.896 261.947 611.824 268.348 609.21 274.539C602.767 289.801 593 303.881 581.112 311.371C575.16 315.121 568.666 317.225 561.793 316.981C554.919 316.737 547.708 314.145 540.325 308.577C511.015 286.474 482.975 262.696 452.509 252.668C437.298 247.662 421.497 246.092 404.648 249.883C387.795 253.674 369.859 262.837 350.394 279.35C330.826 295.95 313.374 303.148 297.959 304.355C282.542 305.562 269.224 300.771 257.938 293.507C246.657 286.246 237.393 276.505 230.064 267.789C226.4 263.431 223.212 259.319 220.503 255.904C217.783 252.475 215.563 249.772 213.811 248.182C205.346 240.501 199.216 236.628 194.26 235.073C191.273 236.272 188.219 237.633 185.101 239.173L184.89 239.277L184.676 239.181L184.674 239.18C184.673 239.179 184.671 239.179 184.669 239.178C184.665 239.176 184.659 239.174 184.652 239.171C184.639 239.165 184.619 239.155 184.595 239.143C184.545 239.12 184.475 239.086 184.389 239.043C184.216 238.956 183.979 238.829 183.715 238.672C183.2 238.366 182.539 237.915 182.097 237.38C181.874 237.111 181.68 236.789 181.611 236.425C181.538 236.042 181.612 235.65 181.865 235.288C182.106 234.943 182.493 234.648 183.01 234.393C183.53 234.135 184.215 233.901 185.091 233.693L185.758 233.547C188.351 233.032 191.082 233.085 194.215 234.013C221.098 223.311 242.716 225.705 258.052 231.234C266.601 234.317 273.188 238.369 277.639 241.653C279.865 243.294 281.557 244.745 282.695 245.787C283.181 246.232 283.566 246.603 283.848 246.883L314.748 156.287C314.728 156.277 314.707 156.266 314.685 156.254C314.405 156.106 314.004 155.893 313.521 155.64C312.555 155.135 311.259 154.466 309.942 153.813C308.623 153.159 307.289 152.525 306.243 152.085C305.987 151.977 305.751 151.883 305.54 151.803C305.562 151.824 305.584 151.846 305.607 151.867C306.251 152.463 307.186 153.22 308.156 153.973C309.123 154.723 310.114 155.459 310.864 156.008C311.239 156.282 311.553 156.509 311.773 156.668C311.883 156.747 311.97 156.809 312.029 156.851C312.058 156.872 312.081 156.888 312.096 156.899C312.104 156.905 312.11 156.909 312.114 156.912C312.115 156.913 312.117 156.914 312.118 156.915L312.12 156.916L312.439 157.143L281.935 234.223L281.417 233.862C261.693 220.095 237.642 219.532 218.459 222.444C208.875 223.9 200.526 226.22 194.574 228.177C191.599 229.155 189.223 230.04 187.592 230.682C186.777 231.003 186.149 231.263 185.725 231.442C185.513 231.531 185.351 231.6 185.244 231.647C185.19 231.67 185.149 231.688 185.123 231.7C185.11 231.705 185.1 231.71 185.093 231.713C185.09 231.715 185.087 231.716 185.086 231.716L185.085 231.717C185.084 231.717 185.084 231.717 184.88 231.261L185.085 231.717L182.051 233.076L184.551 230.883C202.75 214.928 227.125 212.683 246.87 214.392C256.752 215.246 265.499 217.093 271.776 218.726C274.915 219.542 277.437 220.306 279.176 220.866C280.045 221.146 280.719 221.375 281.177 221.534C281.245 221.558 281.309 221.581 281.368 221.602L303.215 144.682L298.862 145.077H299.678L280.231 213.87L280.089 214.373L279.593 214.209C252.896 205.367 228.744 208.999 211.255 214.847C202.51 217.771 195.436 221.249 190.55 223.994C188.107 225.366 186.211 226.555 184.929 227.399C184.287 227.822 183.798 228.158 183.471 228.388C183.308 228.503 183.184 228.591 183.102 228.651C183.061 228.68 183.031 228.702 183.011 228.717C183.001 228.724 182.994 228.73 182.989 228.734C182.987 228.736 182.984 228.737 182.983 228.738L182.982 228.739L180.806 230.361L182.262 228.069C195.656 206.975 217.15 198.165 235.236 194.622C244.283 192.85 252.494 192.391 258.443 192.376C261.417 192.368 263.828 192.471 265.497 192.576C266.331 192.629 266.98 192.683 267.422 192.723C267.529 192.732 267.623 192.741 267.706 192.749L291.992 126.031C273.814 123.656 254.336 132.246 239.283 141.561C231.684 146.263 225.239 151.133 220.693 154.828C218.421 156.675 216.624 158.228 215.396 159.318C214.782 159.863 214.31 160.292 213.992 160.585C213.834 160.731 213.714 160.844 213.633 160.919C213.611 160.94 213.591 160.958 213.575 160.974L175.052 237.324L174.591 237.041C141.105 216.514 109.685 213.32 86.7205 215.214C75.2363 216.16 65.8653 218.379 59.4096 220.34C56.1821 221.32 53.6838 222.236 52.0147 222.895C51.1802 223.225 50.5529 223.491 50.1455 223.668C49.942 223.757 49.7929 223.824 49.7004 223.866C49.654 223.887 49.6225 223.902 49.6028 223.911C49.5977 223.913 49.5825 223.92 49.5716 223.924C49.5634 223.928 49.5064 223.947 49.4554 223.958C48.9154 223.65 49.113 223.043 49.1353 223.025C49.1406 223.022 49.1487 223.018 49.1519 223.016L49.1587 223.012C49.1652 223.008 49.1899 222.994 49.2456 222.962C49.3089 222.926 49.3994 222.875 49.515 222.81C49.7467 222.679 50.0805 222.492 50.5115 222.26C51.3738 221.795 52.624 221.146 54.2216 220.384C57.4169 218.86 62.0038 216.886 67.6594 215.038C78.9683 211.342 94.569 208.145 111.874 210.077L113.245 210.239C127.399 212.018 141.328 216.798 151.816 221.186C157.231 223.452 161.736 225.616 164.887 227.215C165.738 227.647 166.49 228.039 167.135 228.379C141.78 201.804 114.336 197.714 93.2427 200.301C82.3969 201.632 73.2257 204.728 66.8815 207.452C63.7101 208.814 61.2481 210.081 59.6399 210.985C58.835 211.437 58.2473 211.797 57.8937 212.03C57.7994 212.092 57.7259 212.142 57.6711 212.181L57.6262 212.239L57.5364 212.353L57.3998 212.401C57.3823 212.407 57.3083 212.434 57.2182 212.437C57.1876 212.438 57.033 212.445 56.8873 212.331C56.6805 212.169 56.6795 211.935 56.7077 211.816C56.7309 211.718 56.777 211.652 56.7917 211.631C56.8127 211.602 56.8339 211.579 56.8473 211.565C56.8745 211.536 56.9029 211.511 56.9254 211.492C56.9369 211.483 56.9501 211.473 56.9635 211.463L120.259 130.919L121.058 131.519L76.0665 194.646C105.768 184.174 129.402 191.337 145.669 201.226C153.935 206.251 160.299 211.979 164.596 216.449C166.578 218.512 168.12 220.311 169.209 221.649C161.6 201.806 144.823 188.543 129.578 180.154C121.59 175.758 114.04 172.711 108.488 170.763C105.713 169.789 103.437 169.091 101.857 168.635C101.067 168.408 100.451 168.242 100.033 168.132C99.8245 168.077 99.6646 168.037 99.558 168.01C99.5048 167.997 99.4645 167.986 99.4379 167.98C99.4249 167.976 99.4151 167.974 99.4086 167.973C99.4054 167.972 99.4024 167.971 99.4008 167.971C99.4005 167.971 99.3991 167.971 99.515 167.484L99.3989 167.971L98.6473 167.791L152.773 97.5625L153.574 98.1617L153.573 98.1637C153.572 98.1644 153.572 98.1654 153.571 98.1666C153.568 98.1698 153.565 98.1749 153.56 98.1813C153.551 98.1939 153.537 98.213 153.519 98.238C153.483 98.288 153.428 98.3622 153.358 98.4599C153.217 98.6557 153.009 98.9452 152.74 99.3181C152.203 100.064 151.426 101.145 150.466 102.487C148.546 105.171 145.895 108.897 142.969 113.064C137.482 120.88 131.036 130.238 126.641 137.183L125.791 138.538C123.605 142.055 122.279 144.615 121.516 146.474C120.749 148.344 120.57 149.458 120.622 150.101C120.647 150.413 120.725 150.594 120.797 150.698C120.866 150.799 120.948 150.853 121.028 150.886C121.113 150.92 121.203 150.932 121.277 150.932C121.313 150.933 121.342 150.93 121.359 150.929L121.369 150.927L121.548 150.891L121.708 150.98C147.188 165.162 160.6 184.974 167.639 201.24C171.158 209.371 173.085 216.616 174.132 221.831C174.656 224.439 174.959 226.541 175.133 227.993C175.157 228.201 175.177 228.397 175.197 228.578L210.674 162.566C202.899 138.913 191.64 123.951 181.061 114.117C170.439 104.242 160.514 99.5382 155.347 96.3455C154.166 95.6155 152.544 95.2143 150.455 95.0532C148.371 94.8925 145.872 94.9741 142.969 95.1715C137.187 95.5647 129.813 96.4185 121.175 96.6622C103.864 97.1505 81.3395 95.1957 55.3949 82.2486C42.3269 75.7271 37.4602 66.5576 37.7648 57.2005C37.8124 55.7401 37.9858 54.2781 38.2724 52.8241C21.2604 42.4451 5.46114 24.7451 0.311372 1.99761L0.00976114 0.6017L2.69605e-07 0.501015C-0.000241872 0.268203 0.162645 0.0590109 0.39922 0.0102969ZM610.871 215.838C607.865 212.496 603.616 210.758 597.904 211.312C592.074 211.878 588.517 213.145 586.639 214.869C585.714 215.719 585.194 216.682 585.003 217.75C584.811 218.827 584.947 220.043 585.395 221.397C586.293 224.118 588.409 227.286 591.345 230.767C594.273 234.239 597.983 237.981 602.023 241.852C606.085 245.743 610.486 249.767 614.748 253.761C616.556 245.302 617.177 237.199 616.403 230.373C615.708 224.247 613.896 219.203 610.871 215.838ZM192.665 234.642C190.192 234.084 188.006 234.119 185.941 234.531L185.322 234.666C184.49 234.864 183.883 235.077 183.453 235.29C183.018 235.505 182.793 235.705 182.684 235.862C182.585 236.002 182.57 236.12 182.593 236.237C182.619 236.374 182.704 236.544 182.867 236.742C183.197 237.14 183.735 237.52 184.226 237.812C184.465 237.954 184.682 238.069 184.839 238.148C184.852 238.155 184.866 238.162 184.879 238.168C187.52 236.869 190.116 235.697 192.665 234.642ZM100.374 167.187C100.795 167.298 101.388 167.458 102.133 167.673C103.729 168.132 106.023 168.837 108.818 169.818C114.408 171.78 122.011 174.849 130.059 179.277C146.141 188.126 164.075 202.447 171.206 224.286L172.264 227.528L170.319 224.728L170.318 224.726C170.318 224.725 170.316 224.723 170.315 224.72C170.311 224.714 170.304 224.705 170.296 224.694C170.279 224.67 170.254 224.635 170.221 224.588C170.153 224.494 170.052 224.354 169.916 224.172C169.645 223.807 169.237 223.273 168.696 222.601C167.615 221.255 166.001 219.355 163.875 217.143C159.622 212.719 153.325 207.052 145.151 202.083C128.813 192.15 104.972 184.998 74.902 196.131L73.3783 196.695L107.855 148.322L59.4105 209.967C61.0479 209.059 63.4483 207.837 66.4881 206.532C72.8969 203.781 82.1608 200.653 93.1217 199.308C115.063 196.617 143.784 201.081 169.964 229.948L172.094 232.297L169.345 230.718C169.345 230.718 169.342 230.717 169.34 230.716C169.337 230.714 169.332 230.711 169.326 230.707C169.312 230.7 169.291 230.688 169.264 230.672C169.21 230.641 169.129 230.595 169.021 230.535C168.806 230.415 168.485 230.238 168.067 230.01C167.23 229.556 166.001 228.903 164.435 228.108C161.301 226.519 156.819 224.365 151.43 222.11C140.984 217.739 127.149 212.996 113.122 211.233L111.763 211.072C88.9645 208.527 69.1386 214.977 58.3222 219.628C58.583 219.547 58.8487 219.464 59.1197 219.382C65.631 217.404 75.0721 215.169 86.6385 214.216C109.669 212.317 141.124 215.502 174.648 235.906L209.23 167.365L174.444 232.093L174.351 230.309C174.351 230.307 174.35 230.304 174.35 230.302C174.349 230.296 174.349 230.287 174.349 230.275C174.347 230.252 174.345 230.217 174.342 230.17C174.335 230.076 174.325 229.935 174.31 229.749C174.278 229.377 174.225 228.825 174.14 228.111C173.97 226.684 173.67 224.609 173.152 222.029C172.116 216.869 170.208 209.693 166.723 201.638C159.764 185.558 146.518 165.977 121.353 151.929C121.327 151.93 121.299 151.933 121.269 151.932C121.111 151.931 120.889 151.909 120.654 151.814C120.414 151.717 120.167 151.547 119.974 151.266C119.782 150.987 119.662 150.628 119.626 150.181C119.556 149.302 119.805 148.012 120.592 146.094C121.383 144.164 122.74 141.552 124.943 138.01L125.796 136.649C129.257 131.18 133.98 124.229 138.505 117.713L100.374 167.187ZM49.6077 223.907L49.6194 223.901V223.899C49.6139 223.902 49.6104 223.905 49.6077 223.907ZM74.8844 20.9616C67.393 20.8429 58.5049 25.3741 51.392 32.2618C45.5795 37.8904 41.0236 45.0255 39.3968 52.3363C43.9467 55.0605 48.5761 57.2553 53.1021 58.874C64.0217 62.7793 74.2329 63.2984 81.2232 59.9512C84.7042 58.2842 87.3953 55.6558 89.0016 51.9824C90.6113 48.3012 91.1467 43.5344 90.2422 37.5756C89.3386 31.623 87.3296 27.5058 84.6551 24.8649C81.9868 22.2302 78.6129 21.0208 74.8844 20.9616Z"></path></svg>