<svg xmlns="http://www.w3.org/2000/svg" width="446" height="226" viewBox="0 0 446 226"><path d="M310.64 180.413C312.465 179.64 313.202 178.085 313.568 176.289C314.074 173.812 313.834 171.375 313.077 168.985C312.89 168.391 312.753 167.745 312.269 167.334C312.075 167.36 311.937 167.34 311.851 167.397C310 168.595 308.433 170.084 307.295 171.981C306.401 173.474 305.906 175.085 306.049 176.853C306.265 179.514 307.669 180.699 310.64 180.415M86.0275 175.296C84.9883 177.034 84.7849 178.963 84.8692 180.915C84.992 183.748 85.5656 186.508 86.4893 189.192C86.6213 189.576 86.7093 189.985 87.0758 190.236C92.8654 188.728 95.3982 182.274 93.6535 177.334C93.2961 176.323 92.7811 175.404 92.0242 174.638C90.197 172.79 87.7979 172.84 86.3757 174.778C86.3061 174.873 86.2383 174.968 86.0293 175.294M430.449 174.087C430.262 172.911 429.932 171.783 429.252 170.789C427.669 168.47 424.44 168.181 422.484 170.186C421.775 170.913 421.247 171.765 420.906 172.721C420.384 174.186 420.186 175.692 420.367 177.247C420.721 180.281 422.011 182.88 424.018 185.148C424.242 185.4 424.421 185.743 424.841 185.723C426.855 184.085 428.831 181.289 429.762 178.721C430.27 177.325 430.603 175.895 430.447 174.087M277.229 135.124C266.614 140.638 256.62 147.087 247.489 154.836C243.978 157.816 240.532 160.867 237.409 164.259C236.693 165.038 236.048 165.886 235.397 166.725C235.19 166.992 234.952 167.29 235.08 167.706C235.666 168.149 236.057 167.712 236.438 167.362C237.571 166.327 238.652 165.236 239.816 164.239C243.223 161.322 246.745 158.545 250.356 155.882C267.429 143.294 286.019 133.543 305.943 126.312C313.823 123.452 321.825 120.994 330.1 119.523C330.29 119.488 330.389 119.358 330.419 119.018C323.331 111.986 316.268 104.794 309.612 97.3088C308.891 97.1952 308.378 97.4773 307.858 97.7776C307.959 98.437 308.507 98.7557 308.901 99.1714C312.509 102.986 316.134 106.787 319.754 110.593C320.038 110.891 320.326 111.19 320.61 111.49C320.811 111.704 321.081 111.931 320.984 112.243C320.799 112.834 321.182 113.109 321.537 113.419C322.782 114.508 324.048 115.567 325.474 116.417C325.676 116.538 325.884 116.653 326.057 116.809C326.187 116.926 326.238 117.116 326.119 117.281C326.057 117.367 325.934 117.486 325.855 117.475C324.208 117.236 322.708 117.886 321.185 118.298C318.453 119.036 315.74 119.845 313.035 120.682C300.78 124.468 288.878 129.133 277.229 135.127M234.64 176.481C232.795 177.415 230.896 178.225 228.935 178.88C225.059 180.173 221.115 181.135 217.013 181.353C215.884 181.413 214.757 181.386 213.664 181.133C211.953 180.736 210.362 180.115 210.028 178.113C209.409 177.928 208.896 178.087 208.381 178.193C201.275 179.659 194.157 181.073 187.064 182.596C172.111 185.805 157.401 189.906 142.923 194.838C134.824 197.596 126.797 200.547 118.8 203.585C118.203 203.812 117.622 204.111 116.935 204.135C116.444 203.638 116.28 202.997 116.031 202.413C104.043 174.448 92.0608 146.481 80.0784 118.512C78.2897 114.338 76.5083 110.162 74.703 105.997C74.5326 105.605 74.5051 105.054 73.9498 104.926C73.5851 105.221 73.6089 105.576 73.7152 105.91C73.8581 106.356 74.0542 106.789 74.2412 107.223C82.9577 127.545 91.6741 147.867 100.396 168.188C105.676 180.488 110.964 192.785 116.258 205.08C116.511 205.666 116.654 206.32 117.186 206.831C117.389 206.781 117.618 206.75 117.829 206.668C119.424 206.047 121.018 205.43 122.601 204.785C137.54 198.699 152.898 193.88 168.453 189.659C179.5 186.66 190.658 184.113 201.825 181.609C204.002 181.122 206.189 180.671 208.318 180.214C208.472 180.351 208.59 180.411 208.639 180.508C209.554 182.309 211.122 183.1 213.032 183.399C215.402 183.768 217.746 183.474 220.081 183.124C223.418 182.626 226.637 181.655 229.818 180.545C232.389 179.648 234.889 178.615 237.18 177.12C238.273 176.406 239.292 175.605 240.169 174.64C241.308 173.389 242.174 172.005 242.136 170.232C242.123 169.631 242.385 169.243 242.9 168.952C243.927 168.369 244.933 167.75 245.948 167.151C254.182 162.292 262.51 157.607 271.102 153.4C280.482 148.809 289.934 144.369 299.403 139.97C306.681 136.589 314.038 133.386 321.552 130.562C326.41 128.736 331.269 126.908 336.236 125.382C336.386 125.336 336.501 125.173 336.641 125.058C336.679 124.1 336.373 123.325 335.684 122.77C334.982 122.662 334.44 122.926 333.886 123.12C332.05 123.765 330.206 124.393 328.384 125.076C318.88 128.64 309.518 132.556 300.287 136.772C279.819 146.122 259.928 156.574 240.562 168.029C240.259 168.206 239.922 168.344 239.753 168.763C239.834 168.996 239.92 169.274 240.023 169.547C240.505 170.833 240.226 172.001 239.4 173.029C238.96 173.574 238.419 174.052 237.873 174.496C236.953 175.241 235.912 175.805 234.64 176.486M162.856 179.426C164.215 178.855 165.568 178.267 166.935 177.715C174.864 174.519 183.016 172.25 191.608 171.801C196.228 171.56 200.815 171.781 205.34 172.789C207.589 173.289 209.807 173.917 211.747 175.245C211.881 175.336 212.068 175.353 212.206 175.397C212.47 175.236 212.576 175.058 212.451 174.796C212.165 174.184 211.647 173.787 211.132 173.391C209.326 171.996 207.255 171.164 205.082 170.551C201.413 169.516 197.645 169.239 193.862 169.215C187.576 169.177 181.385 170.019 175.278 171.488C168.378 173.149 161.708 175.512 155.154 178.21C148.164 181.085 141.363 184.369 134.578 187.684C131.767 189.058 128.904 190.312 125.996 191.466C125.455 191.681 124.94 192.001 124.343 191.955C124.027 191.798 123.961 191.501 123.855 191.23C123.318 189.858 122.792 188.479 122.239 187.115C112.749 163.714 102.432 140.682 91.1408 118.091C88.5292 112.867 85.8479 107.679 83.02 102.569C82.7157 102.018 82.5251 101.367 81.8947 100.992C80.7987 101.36 79.6111 101.431 78.6068 102.076C78.7076 102.787 79.0558 103.274 79.3234 103.792C80.9215 106.884 82.56 109.955 84.1196 113.065C95.2736 135.325 105.781 157.88 115.265 180.904C117.219 185.648 119.147 190.402 120.926 195.214C121.165 195.855 121.28 196.591 121.92 197.084C123.971 196.781 125.935 196.164 127.883 195.485C132.179 193.988 136.336 192.162 140.432 190.186C147.818 186.62 155.09 182.823 162.856 179.426ZM300.155 100.662C288.889 105.371 278.336 111.333 268.489 118.554C257.835 126.367 248.668 135.649 240.899 146.314C237.734 150.66 234.897 155.212 232.692 160.135C231.774 162.184 230.987 164.278 230.553 166.488C230.465 166.939 230.232 167.419 230.751 167.767C231.096 167.997 231.431 167.721 231.786 166.855C232.804 164.382 234.206 162.137 235.78 159.99C237.387 157.8 239.154 155.741 240.978 153.728C250.26 143.485 261.09 135.173 273.113 128.441C287.315 120.488 302.343 114.708 318.469 111.997C318.773 111.946 319.197 112.005 319.309 111.552C318.205 110.105 307.786 99.1073 306.617 98.1678C304.502 98.7685 302.48 99.7355 300.155 100.662ZM262.534 32.7062C260.542 29.708 258.555 26.708 256.556 23.7135C256.301 23.3326 256.138 22.849 255.548 22.6897C255.042 22.8436 254.479 23.0102 253.917 23.1824C253.363 23.3527 252.795 23.4974 252.348 24.034C252.711 24.6183 253.039 25.1696 253.389 25.7044C261.325 37.8582 269.26 50.0102 277.202 62.1604C281.268 68.3839 285.346 74.6 289.406 80.8289C289.75 81.3582 290.265 81.8234 290.251 82.5176C290.133 82.7685 289.943 82.9003 289.714 82.9718C286.992 83.8179 284.467 85.1055 281.978 86.4535C268.813 93.5817 257.291 102.774 247.451 114.056C240.657 121.847 235.104 130.442 230.892 139.889C227.694 147.063 225.662 154.538 225.15 162.397C225.073 163.573 225.075 164.756 225.066 165.933C225.06 166.525 225.136 167.115 225.41 167.653C225.553 167.931 225.779 168.107 226.12 168.06C226.382 168.023 226.552 167.834 226.624 167.62C226.715 167.345 226.745 167.045 226.761 166.754C226.875 164.684 227.249 162.659 227.753 160.651C229.488 153.736 232.292 147.261 235.839 141.094C240.877 132.331 247.148 124.534 254.474 117.593C267.464 105.281 282.234 95.893 299.429 90.5469C299.766 90.4425 300.124 90.3875 300.354 90.0762C300.334 89.9644 300.347 89.8326 300.289 89.7465C287.754 70.8014 275.213 51.86 262.538 32.7025M194.291 159.975C190.862 159.32 187.407 158.917 183.912 158.975C180.127 159.04 176.376 159.441 172.653 160.12C167.359 161.087 162.209 162.584 157.134 164.353C150.501 166.666 144.022 169.369 137.557 172.104C134.784 173.276 131.983 174.371 129.128 175.323C128.739 175.453 128.353 175.646 127.915 175.333C127.506 174.629 127.552 173.772 127.346 172.981C126.529 169.84 125.561 166.747 124.531 163.671C119.099 147.45 112.912 131.514 106.186 115.787C102.846 107.979 99.4376 100.203 95.7501 92.5505C95.477 91.9828 95.3304 91.3216 94.7 90.882C91.9692 92.1568 89.0643 92.9315 86.1631 93.7154C85.9945 93.7612 85.8369 93.8399 85.7929 94.1549C85.857 94.7813 86.2859 95.3582 86.6286 95.9699C88.7931 99.8271 90.9117 103.71 92.8947 107.666C100.063 121.955 106.774 136.455 113.071 151.146C117.369 161.17 121.573 171.236 125.415 181.448C125.593 181.922 125.66 182.472 126.205 182.82C126.791 182.549 127.379 182.285 127.959 182.005C136.998 177.633 146.222 173.723 155.811 170.701C165.005 167.803 174.327 165.518 183.971 164.734C189.229 164.305 194.47 164.393 199.672 165.338C202.937 165.931 206.104 166.858 209.028 168.475C211.106 169.626 213.025 170.983 214.462 172.924C214.509 172.99 214.665 172.977 214.768 172.999C215.044 172.877 215.032 172.631 214.995 172.406C214.902 171.812 214.614 171.294 214.319 170.781C213.511 169.378 212.398 168.248 211.139 167.25C208.291 164.996 205.128 163.309 201.724 162.062C199.393 161.208 197.001 160.569 194.287 159.974M172.736 140.444C165.357 140.197 157.984 140.329 150.611 140.703C147.836 140.844 145.065 140.845 142.305 140.444C141.9 140.386 141.475 140.395 141.066 140.001C140.888 139.364 140.689 138.629 140.48 137.897C137.529 127.519 134.208 117.257 130.772 107.032C126.338 93.8417 121.452 80.8198 116.218 67.926C115.934 67.2282 115.743 66.4736 115.192 65.8289C112.122 65.6787 109.118 65.0505 106.1 64.5359C105.9 64.5011 105.77 64.5725 105.658 64.7721C105.619 65.2447 105.935 65.6311 106.129 66.045C107.485 68.9278 108.717 71.8637 109.871 74.8307C117.615 94.7263 124.453 114.935 130.726 135.336C132.614 141.475 134.468 147.629 135.768 153.931C135.801 154.094 135.913 154.239 135.968 154.353C136.378 154.646 136.805 154.56 137.21 154.58C140.604 154.737 143.914 154.184 147.195 153.391C152.526 152.104 157.85 150.787 163.187 149.523C167.668 148.463 172.195 147.618 176.792 147.265C185.105 146.626 193.002 148.188 200.46 151.922C204.664 154.027 208.476 156.677 211.665 160.157C213.719 162.397 215.36 164.899 216.291 167.822C216.487 168.439 216.716 169.047 216.958 169.648C217.169 170.175 217.541 170.426 217.86 170.294C218.257 170.131 218.294 169.77 218.299 169.411C218.303 169.177 218.296 168.935 218.248 168.708C217.839 166.745 217.378 164.803 216.545 162.957C214.792 159.065 212.222 155.809 208.971 153.067C204.178 149.025 198.772 146.058 192.868 144.001C186.465 141.768 179.821 140.814 172.73 140.442M197.403 11.0981C197.797 13.915 197.844 16.7465 197.615 19.5743C197.174 25.0175 195.902 30.274 193.931 35.3674C192.311 39.5542 190.326 43.5725 188.376 47.6055C186.709 51.0578 185.134 54.5524 183.758 58.1329C182.524 61.3381 181.659 64.6421 181.221 68.0487C180.901 70.5377 181.093 72.9187 182.101 75.3124C194.905 105.686 207.649 136.085 220.414 166.475C220.687 167.126 221.023 167.75 221.358 168.371C221.465 168.567 221.655 168.747 222.06 168.605C222.328 168.12 222.177 167.563 222.02 167.01C221.697 165.873 221.494 164.717 221.389 163.536C220.939 158.38 221.476 153.285 222.344 148.215C223.272 142.796 224.831 137.541 226.572 132.336C228.86 125.503 231.776 118.926 234.721 112.362C237.426 106.336 240.136 100.312 242.546 94.1623C245.239 87.2905 247.564 80.3051 248.923 73.0267C249.674 69.0011 250.006 64.9681 249.434 60.8839C249.232 59.4461 248.781 58.2447 247.702 57.1513C242.061 51.4425 236.504 45.6494 230.914 39.8893C219.694 28.3271 208.472 16.7648 197.243 5.20985C196.798 4.75197 196.433 4.18787 195.577 3.85637C196.418 6.20619 197.076 8.45527 197.399 11.1M134.698 59.9003C131.212 59.7666 127.761 59.3509 124.337 58.6824C120.032 57.8417 115.852 56.6348 111.937 54.6128C111.787 54.5359 111.616 54.4461 111.471 54.6494C111.374 55.023 111.627 55.3088 111.761 55.6146C112.307 56.8564 112.897 58.078 113.44 59.3216C117.659 69.0011 121.478 78.8417 125.143 88.7428C131.126 104.895 136.479 121.257 141.347 137.778C141.512 138.336 141.6 138.924 141.951 139.386C142.646 139.701 143.359 139.715 144.063 139.767C146.185 139.924 148.309 139.893 150.437 139.829C155.866 139.666 161.294 139.424 166.728 139.453C173.058 139.486 179.345 139.93 185.567 141.171C192.659 142.589 199.224 145.265 205.254 149.252C207.974 151.051 210.487 153.102 212.666 155.532C216.054 159.314 218.241 163.69 219.053 168.725C219.119 169.129 219.227 169.519 219.104 169.944C218.93 170.549 218.657 171.043 218.004 171.206C217.416 171.353 216.734 171.034 216.386 170.382C216.139 169.92 215.976 169.406 215.825 168.9C215.114 166.496 213.987 164.311 212.448 162.331C211.137 160.644 209.642 159.146 208.005 157.778C204.9 155.182 201.453 153.157 197.747 151.556C191.179 148.721 184.324 147.519 177.182 148.052C172.639 148.391 168.167 149.197 163.741 150.245C158.459 151.496 153.186 152.778 147.921 154.094C144.118 155.045 140.284 155.615 136.354 155.389C135.946 155.366 135.52 155.415 135.137 155.03C135.073 154.754 134.982 154.413 134.914 154.069C134.157 150.186 133.096 146.382 132.005 142.584C128.457 130.226 124.447 118.014 120.307 105.844C117.001 96.1293 113.524 86.4773 109.826 76.904C109.58 76.2685 109.433 75.5633 108.907 75.0066C108.645 75.1311 108.425 75.2135 108.229 75.3344C103.182 78.4132 97.7478 80.4516 91.9124 81.4187C91.665 81.4589 91.478 81.578 91.3827 81.8381C91.4505 82.4296 91.7823 82.926 92.0608 83.4406C95.675 90.1439 98.8254 97.0688 101.936 104.014C109.582 121.084 116.575 138.415 122.803 156.052C124.883 161.946 126.954 167.844 128.464 173.919C128.521 174.151 128.64 174.351 128.998 174.431C131.899 173.514 134.798 172.347 137.679 171.137C144.314 168.345 150.963 165.583 157.781 163.259C164.782 160.873 171.911 159.069 179.31 158.402C185.193 157.873 190.986 158.285 196.71 159.69C200.68 160.664 204.506 162.029 208.036 164.142C209.763 165.177 211.408 166.316 212.876 167.701C214.051 168.809 214.947 170.109 215.622 171.574C215.911 172.206 215.943 172.825 215.699 173.459C215.426 174.168 214.476 174.362 213.945 173.825C213.824 173.704 213.718 173.552 213.655 173.393C213.358 172.648 212.765 172.157 212.191 171.648C209.942 169.657 207.32 168.338 204.492 167.402C200.078 165.944 195.515 165.389 190.893 165.303C184.667 165.188 178.525 165.99 172.435 167.206C162.157 169.259 152.237 172.477 142.536 176.404C137.392 178.486 132.377 180.855 127.379 183.265C126.811 183.54 126.276 183.942 125.679 183.95C125.226 183.717 125.189 183.345 125.068 183.018C124.286 180.919 123.527 178.809 122.71 176.723C115.346 157.937 107.322 139.437 98.644 121.219C95.1673 113.922 91.6466 106.651 87.7099 99.5872C87.4314 99.0853 87.2792 98.4773 86.6543 98.1348C85.3567 98.7099 83.9235 99.0212 82.5984 99.7135C82.7157 100.4 83.0475 100.891 83.326 101.399C87.2261 108.479 90.9062 115.673 94.458 122.931C105.143 144.765 115.045 166.95 124.146 189.49C124.335 189.959 124.359 190.556 124.905 190.833C125.527 190.823 126.043 190.508 126.582 190.292C129.318 189.188 132.014 187.992 134.668 186.699C141.884 183.186 149.114 179.701 156.577 176.736C164.1 173.747 171.748 171.168 179.741 169.706C186.635 168.446 193.561 168.003 200.538 168.807C203.068 169.098 205.538 169.673 207.908 170.626C209.506 171.268 210.994 172.104 212.288 173.258C212.684 173.611 213.1 173.974 213.283 174.481C213.472 174.999 213.456 175.53 213.041 175.968C212.686 176.345 212.171 176.395 211.575 176.094C211.313 175.963 211.064 175.8 210.818 175.637C209.975 175.074 209.051 174.701 208.095 174.38C206.299 173.778 204.46 173.334 202.591 173.071C197.058 172.289 191.521 172.377 185.998 173.159C180.776 173.899 175.721 175.305 170.779 177.115C164.676 179.349 158.794 182.091 152.961 184.946C147.397 187.67 141.896 190.529 136.237 193.052C132.194 194.856 128.094 196.519 123.782 197.596C122.876 197.822 121.973 198.043 121.078 198.063C119.836 194.774 118.687 191.563 117.419 188.4C109.822 169.453 101.571 150.794 92.717 132.4C88.2396 123.1 83.7457 113.807 78.878 104.703C78.5774 104.14 78.3813 103.501 77.7307 102.983C76.8327 103.322 75.7605 103.311 74.7855 103.961C75.0934 104.719 75.3665 105.426 75.6671 106.122C85.5931 129.267 95.521 152.41 105.451 175.552C109.149 184.17 112.853 192.785 116.563 201.397C116.812 201.977 116.933 202.644 117.549 203.115C118.37 202.811 119.194 202.508 120.019 202.201C128.527 199.01 137.062 195.899 145.688 193.038C158.186 188.895 170.85 185.347 183.707 182.505C189.698 181.181 195.709 179.952 201.717 178.706C204.431 178.144 207.158 177.64 209.882 177.116C210.283 177.04 210.705 176.928 211.047 177.353C211.06 177.496 211.106 177.673 211.086 177.842C210.958 178.829 211.491 179.386 212.306 179.77C213.115 180.149 213.95 180.431 214.848 180.477C216.206 180.549 217.568 180.563 218.917 180.388C223.151 179.834 227.25 178.754 231.207 177.149C233.124 176.371 234.975 175.457 236.709 174.32C237.451 173.833 238.153 173.285 238.709 172.587C239.519 171.569 239.722 170.483 239.017 169.309C238.843 169.019 238.483 168.816 238.546 168.406C241.056 166.21 270.212 150.329 285.284 142.941C301.282 135.1 317.582 127.964 334.443 121.983C332.587 120.217 332.085 120.045 329.957 120.377C329.839 120.395 329.726 120.422 329.609 120.441C326.87 120.895 324.173 121.532 321.493 122.254C307.363 126.054 293.852 131.441 280.829 138.085C268.542 144.355 256.889 151.609 246.085 160.199C242.99 162.66 239.874 165.098 237.098 167.931C236.68 168.358 236.209 168.699 235.578 168.765C234.624 168.866 233.982 168.181 234.154 167.239C234.244 166.752 234.55 166.388 234.822 166.007C235.819 164.607 237.004 163.371 238.218 162.164C244.343 156.069 250.992 150.6 258.084 145.671C268.694 138.3 280.061 132.323 291.99 127.393C301.982 123.263 312.214 119.842 322.668 117.085C323.097 116.972 323.555 116.915 323.929 116.518C322.578 115.362 321.273 114.265 319.996 113.138C319.595 112.785 319.164 112.728 318.682 112.805C317.518 112.994 316.349 113.16 315.192 113.391C307.299 114.963 299.649 117.345 292.164 120.283C277.816 125.913 264.646 133.541 252.832 143.457C247.119 148.252 241.887 153.527 237.285 159.406C235.388 161.831 233.716 164.397 232.571 167.276C232.417 167.662 232.245 168.038 231.935 168.325C231.515 168.714 231.026 168.895 230.474 168.673C229.939 168.461 229.6 168.03 229.576 167.461C229.558 166.997 229.639 166.519 229.743 166.063C230.1 164.51 230.579 162.992 231.182 161.514C232.615 158.008 234.398 154.684 236.425 151.492C242.893 141.301 250.763 132.312 259.879 124.422C269.119 116.424 279.284 109.79 290.23 104.367C297.429 100.801 304.77 97.5725 312.549 95.4498C312.775 95.3875 313.008 95.3234 313.123 95.0688C313.173 94.6842 312.889 94.4315 312.705 94.1458C305.215 82.4937 267.609 26.3784 266.308 24.9058C263.797 25.252 261.275 26.3381 260.121 27.6C260.423 28.078 260.725 28.578 261.048 29.0652C274.11 48.7227 287.174 68.3802 300.237 88.0377C300.629 88.6274 301.022 89.2172 301.405 89.8124C301.568 90.0652 301.672 90.3381 301.474 90.785C300.738 90.9974 299.898 91.2263 299.068 91.4791C294.941 92.7355 290.92 94.2831 287.027 96.1348C270.223 104.122 255.922 115.292 244.379 129.906C238.938 136.796 234.444 144.261 231.255 152.466C229.413 157.206 227.879 162.034 227.591 167.168C227.575 167.457 227.52 167.759 227.412 168.027C227.01 169.012 225.909 169.292 225.082 168.631C224.542 168.199 224.309 167.627 224.278 166.935C224.186 164.986 224.228 163.038 224.399 161.098C224.927 155.129 226.297 149.349 228.422 143.747C232.052 134.175 237.233 125.483 243.558 117.47C252.013 106.761 262.131 97.8765 273.567 90.4681C278.38 87.3509 283.36 84.5414 288.711 82.4351C288.874 82.371 289.03 82.2959 289.045 82.0853C288.222 80.459 246.666 16.7318 245.655 15.5487C245.066 15.4186 244.491 15.5523 243.921 15.7044C242.382 16.1146 240.829 16.4827 239.314 16.9663C234.675 18.4498 230.296 20.4681 226.382 23.4095C224.721 24.6567 223.202 26.0469 221.969 27.7282C221.73 28.0542 221.411 28.3545 221.51 28.893C221.782 29.4296 222.306 29.8307 222.753 30.2923C231.376 39.1952 240.001 48.1 248.648 56.9809C249.375 57.7282 249.898 58.5066 250.046 59.5542C250.46 62.4846 250.708 65.4205 250.398 68.3747C250.039 71.7813 249.388 75.1366 248.543 78.4571C246.837 85.1586 244.473 91.6348 241.846 98.0212C238.93 105.113 235.679 112.06 232.617 119.087C229.147 127.049 226.153 135.173 224.129 143.631C222.641 149.856 221.842 156.159 222.157 162.576C222.218 163.82 222.405 165.038 222.718 166.241C222.837 166.697 222.958 167.153 223.066 167.613C223.165 168.027 223.125 168.43 222.964 168.825C222.667 169.549 221.908 169.823 221.212 169.461C220.823 169.259 220.581 168.935 220.416 168.547C220.185 168.005 219.976 167.453 219.747 166.91C206.845 136.252 193.939 105.598 181.051 74.9351C180.47 73.5524 179.693 72.3289 178.696 71.2245C177.703 70.1256 176.612 69.1366 175.439 68.2355C173.229 66.5395 170.841 65.1384 168.306 63.9864C162.799 61.4809 156.991 60.2959 150.969 60.1384C147.545 60.0487 144.12 60.0963 140.694 60.0578C138.806 60.0377 136.917 59.9663 134.699 59.8912M445.993 197.308C444.364 196.965 442.747 196.554 441.147 196.051C437.817 195.003 434.597 193.693 431.532 192.018C429.456 190.882 427.495 189.574 425.712 188.008C425.405 187.741 425.076 187.503 424.766 187.258C424.553 187.382 424.386 187.448 424.256 187.558C420.087 191.1 415.226 193.309 410.067 194.957C405.872 196.298 401.556 196.856 397.174 197.029C388.142 197.384 379.587 195.494 371.43 191.666C367.203 189.682 363.1 187.47 359.185 184.93C355.573 182.584 352.01 180.159 348.451 177.73C344.501 175.034 340.528 172.377 336.349 170.043C332.512 167.9 328.48 166.267 324.149 165.433C321.816 164.985 319.464 164.809 317.108 165.243C316.356 165.38 315.61 165.573 314.881 165.8C314.324 165.972 313.752 166.151 313.31 166.574C313.072 167.159 313.497 167.596 313.666 168.071C314.681 170.915 314.971 173.807 314.322 176.774C314.118 177.706 313.781 178.582 313.233 179.366C312.57 180.314 311.71 180.994 310.57 181.296C308.767 181.774 307.112 181.168 306.107 179.605C305.277 178.312 304.997 176.888 305.219 175.371C305.508 173.397 306.32 171.649 307.574 170.105C308.433 169.047 309.416 168.115 310.499 167.285C310.913 166.968 311.314 166.631 311.76 166.274C311.38 165.386 310.786 164.737 310.2 164.091C308.473 162.192 306.414 160.725 304.165 159.508C300.934 157.761 297.512 156.481 294.019 155.371C289.53 153.946 284.928 153.371 280.229 153.428C277.964 153.455 275.79 153.888 273.62 154.521C268.038 156.153 262.776 158.501 257.721 161.351C252.991 164.016 248.279 166.712 243.639 169.534C243.488 169.626 243.353 169.741 243.247 169.82C242.942 170.148 243.05 170.525 242.995 170.866C242.739 172.424 242.053 173.774 241.011 174.946C240.103 175.966 239.083 176.856 237.939 177.604C236.405 178.609 234.803 179.485 233.099 180.173C229.094 181.789 224.998 183.098 220.737 183.849C218.582 184.228 216.408 184.435 214.216 184.347C212.013 184.258 210.034 183.644 208.52 181.928C208.417 181.811 208.241 181.758 208.031 181.635C207.943 181.97 207.835 182.247 207.802 182.53C207.556 184.739 206.713 186.748 205.716 188.699C203.771 192.508 201.259 195.926 198.409 199.1C194.404 203.558 189.808 207.344 184.955 210.831C176.229 217.1 166.688 221.622 156.227 224.148C148.401 226.038 140.487 226.492 132.493 225.481C122.411 224.206 113.134 220.796 104.831 214.915C96.9414 209.327 91.1042 202.034 87.1894 193.199C86.9512 192.662 86.7148 192.124 86.5113 191.662C86.0495 191.334 85.6298 191.464 85.2357 191.529C82.5545 191.959 79.9391 191.576 77.3532 190.888C74.3163 190.078 71.4463 188.84 68.6788 187.367C65.028 185.426 61.533 183.225 58.049 181.003C53.6688 178.21 49.2519 175.481 44.5986 173.155C39.8408 170.776 34.9694 168.673 29.8433 167.214C26.0752 166.14 22.2283 165.567 18.3044 165.651C13.9388 165.747 9.74918 166.587 5.88578 168.732C5.26632 169.076 4.63769 169.4 4.01273 169.734C2.80863 170.377 1.6705 171.109 0.776127 172.162C0.613013 172.355 0.42974 172.459 0.169492 172.4C-0.12741 172.054 0.00271371 171.725 0.275791 171.472C0.840272 170.953 1.38459 170.389 2.02972 169.992C5.41111 167.91 8.91712 166.111 12.8923 165.419C16.1124 164.858 19.3435 164.761 22.5948 165.063C28.005 165.567 33.089 167.254 38.0686 169.314C43.5338 171.576 48.7552 174.318 53.7806 177.43C57.1418 179.51 60.4792 181.633 63.8478 183.704C67.0166 185.653 70.2495 187.49 73.7262 188.853C76.4845 189.933 79.294 190.811 82.296 190.873C83.4763 190.897 84.6456 190.845 85.7507 190.659C86.1301 190.096 85.8112 189.659 85.6738 189.245C84.926 186.996 84.4458 184.695 84.1764 182.344C83.9877 180.688 84.0225 179.047 84.367 177.413C84.6145 176.243 85.058 175.157 85.8076 174.215C87.3452 172.283 89.5592 171.926 91.6228 173.27C93.1898 174.29 94.0897 175.809 94.5827 177.547C95.9132 182.241 94.108 188.01 88.8352 190.481C88.3587 190.704 87.884 190.93 87.4167 191.149C87.3232 191.704 87.5963 192.107 87.7759 192.523C92.0334 202.329 98.6422 210.151 107.679 215.873C114.754 220.353 122.477 223.133 130.75 224.433C135.913 225.245 141.097 225.384 146.29 224.963C152.682 224.444 158.847 222.886 164.859 220.673C174.847 216.996 183.664 211.391 191.701 204.488C195.024 201.635 198.079 198.521 200.714 195.012C202.67 192.41 204.426 189.69 205.729 186.695C206.225 185.554 206.607 184.38 206.845 183.16C206.913 182.814 206.94 182.459 206.947 182.105C206.951 181.944 206.867 181.779 206.83 181.646C206.387 181.397 205.98 181.545 205.591 181.631C188.186 185.457 170.83 189.479 153.785 194.726C143.238 197.974 132.78 201.486 122.572 205.703C121.045 206.333 119.51 206.941 117.983 207.569C117.536 207.752 117.098 207.906 116.577 207.666C116.117 207.23 115.963 206.582 115.71 205.994C107.042 185.776 98.3801 165.556 89.7149 145.336C84.3487 132.814 78.9788 120.294 73.6107 107.772C73.4476 107.393 73.2735 107.018 73.1159 106.637C72.4066 104.922 73.1709 103.373 74.9981 102.829C75.7862 102.594 76.5834 102.388 77.3422 102.177C77.4906 101.849 77.6097 101.587 77.7674 101.236C78.3318 101.082 78.9531 100.917 79.5726 100.743C80.1389 100.584 80.7016 100.415 81.0754 100.305C81.7096 99.9699 81.4255 99.426 81.7884 99.0249C83.1263 98.3069 84.86 98.2117 86.2493 97.1879C85.8296 95.8161 84.6859 94.7575 84.7739 93.1549C88.0123 92.2978 91.3039 91.6183 94.2088 90.1403C94.4086 89.6036 94.1923 89.3033 94.0329 88.9937C93.1073 87.2154 92.1635 85.4443 91.2544 83.6568C90.8311 82.8271 90.3289 82.0231 90.1255 81.1806C90.3399 80.6824 90.7028 80.6842 91.0565 80.6384C97.1907 79.8655 102.813 77.6861 108.046 74.4425C108.193 74.3527 108.31 74.2154 108.513 74.0359C108.502 73.0377 107.908 72.1952 107.558 71.2813C107.221 70.4003 106.831 69.5414 106.446 68.6787C106.037 67.763 105.594 66.8637 105.196 65.9425C104.829 65.0945 104.291 64.3381 103.777 63.6641C104.19 63.1348 104.547 63.3033 104.877 63.3674C106.906 63.752 108.929 64.1586 110.96 64.5304C112.171 64.752 113.399 64.8289 114.517 64.9223C114.899 64.5267 114.706 64.2648 114.598 64.0029C113.299 60.8381 111.902 57.7154 110.434 54.6256C110.232 54.2025 110.044 53.7685 109.904 53.3216C109.838 53.111 109.868 52.8472 110.093 52.6842C110.313 52.5267 110.551 52.5377 110.736 52.708C112.769 54.5487 115.32 55.3582 117.836 56.1824C123.082 57.9022 128.488 58.7593 133.996 59.0688C139.661 59.3857 145.331 59.1806 150.996 59.3417C156.78 59.5047 162.366 60.5688 167.701 62.8381C172.091 64.7062 176.086 67.1641 179.37 70.6806C179.522 70.8436 179.728 70.9589 179.889 71.0798C180.228 70.8436 180.224 70.5395 180.237 70.2502C180.426 65.4699 181.722 60.9553 183.496 56.5505C184.973 52.882 186.646 49.3051 188.38 45.752C190.293 41.8289 192.207 37.904 193.686 33.7886C195.777 27.9699 197.029 21.9864 196.97 15.7813C196.937 12.2886 196.508 8.83989 195.332 5.51754C194.758 3.89849 194.096 2.3289 193.057 0.940618C192.841 0.651241 192.856 0.640252 192.951 0.0175407C193.281 -0.0575509 193.515 0.120105 193.726 0.328896C194.228 0.828896 194.723 1.33622 195.216 1.84355C203.222 10.1128 211.227 18.3838 219.232 26.6531C219.641 27.0743 220.066 27.4773 220.444 27.849C220.953 27.8454 221.105 27.4846 221.305 27.219C223.361 24.4773 226.037 22.4608 228.931 20.7025C232.791 18.3564 236.955 16.719 241.291 15.4974C242.821 15.067 244.348 14.6201 245.875 14.5743C246.379 14.7831 246.522 15.1952 246.745 15.534C248.105 17.6055 249.456 19.6842 250.823 21.7501C251.111 22.1842 251.307 22.7044 251.837 22.9626C253.167 22.5267 254.505 22.0871 255.852 21.6458C256.765 22.2703 257.122 23.2447 257.699 24.0377C258.284 24.8399 258.823 25.6787 259.431 26.5762C261.759 25.3619 264.024 24.2703 266.363 23.9077C266.625 24.0139 266.684 24.0267 266.733 24.0597C266.781 24.0908 266.821 24.1384 266.859 24.1824C266.938 24.2703 267.028 24.3509 267.094 24.448C282.692 47.7355 298.287 71.0231 313.884 94.3106C314.016 94.5066 314.146 94.7025 314.265 94.9077C314.322 95.0084 314.353 95.1256 314.388 95.2373C314.404 95.2905 314.412 95.3527 314.406 95.4077C314.401 95.4663 314.377 95.5212 314.325 95.7044C313.25 96.252 311.888 96.2209 310.792 96.7776C310.588 97.1952 310.841 97.4003 311.026 97.6128C311.963 98.6769 312.887 99.7502 313.851 100.787C318.35 105.631 322.956 110.373 327.616 115.063C329.959 117.421 332.409 119.613 335.325 121.236C336.685 121.992 337.275 123.237 337.53 124.684C337.702 125.659 337.41 126.018 336.371 126.237C334.632 126.605 332.984 127.265 331.317 127.847C320.5 131.618 309.905 135.935 299.53 140.798C291.248 144.679 282.945 148.512 274.733 152.541C274.055 152.875 273.305 153.1 272.748 153.677C273.149 153.902 273.47 153.635 273.78 153.536C277.104 152.481 280.506 152.406 283.948 152.627C290.958 153.078 297.47 155.252 303.723 158.311C306.338 159.589 308.723 161.225 310.706 163.38C311.378 164.111 311.976 164.913 312.634 165.714C312.89 165.637 313.121 165.598 313.327 165.503C316.382 164.087 319.595 163.922 322.862 164.371C327.116 164.953 331.106 166.377 334.916 168.323C338.708 170.261 342.295 172.54 345.817 174.915C349.193 177.192 352.534 179.523 355.91 181.8C360.76 185.071 365.783 188.047 371.072 190.562C375.892 192.853 380.89 194.585 386.163 195.503C390.202 196.206 394.266 196.225 398.345 196.111C404.829 195.93 410.916 194.197 416.738 191.435C419.039 190.344 421.185 188.99 423.159 187.377C423.43 187.155 423.681 186.908 423.926 186.684C423.897 185.963 423.336 185.637 422.979 185.199C421.306 183.146 420.146 180.858 419.691 178.237C419.396 176.53 419.416 174.831 419.889 173.151C420.246 171.882 420.873 170.761 421.733 169.759C424.167 166.924 428.571 167.875 430.092 170.523C431.334 172.684 431.578 174.975 431.025 177.362C430.341 180.311 428.769 182.785 426.8 185.034C426.379 185.516 425.953 185.994 425.514 186.492C425.854 187.164 426.413 187.514 426.899 187.919C428.908 189.585 431.124 190.935 433.458 192.091C437.471 194.079 441.653 195.518 445.993 196.465"></path></svg>