<svg width="449" height="407" viewBox="0 0 449 407" fill="none" xmlns="http://www.w3.org/2000/svg">
<mask id="mask0_151_149" style="mask-type:luminance" maskUnits="userSpaceOnUse" x="0" y="0" width="449" height="449">
<path d="M449 0H0V449H449V0Z" fill="white"/>
</mask>
<g mask="url(#mask0_151_149)">
<path d="M222.519 321.944L203.038 355.747L293.226 389.568L370.603 262.485L282.509 223.15L268.724 247.01C263.207 256.559 249.659 257.152 243.298 248.144C229.989 229.298 234.727 202.851 238.209 192.573C242.705 179.298 251.362 175.524 245.295 157.997C239.228 140.47 254.059 125.189 243.497 107.212C232.936 89.2352 240.528 84.5198 233.337 76.2052C231.283 73.83 228.943 72.2594 226.65 71.2294C221.626 68.9709 215.888 69.0733 210.734 71.0121C180.987 82.2021 188.796 106.991 188.796 106.991C190.569 126.062 182.283 131.888 191.495 147.831C200.707 163.774 210.118 165.066 225.506 161.293C241.16 157.455 230.902 171.261 217.794 174.449C204.686 177.637 199.037 178.915 200.269 188.787C202.45 206.27 198.955 229.846 183.253 241.002C169.306 250.912 146.183 248.709 142.25 229.315C137.638 206.565 158.193 205.578 150.399 181.841C142.605 158.105 170.947 144.642 168.113 123.031C165.279 101.419 180.482 75.5838 198.477 65.4957C209.672 59.2195 215.168 59.3803 217.724 60.3986C219.105 60.9482 220.67 60.9033 222.021 60.2846C225.615 58.6376 233.845 58.0297 249.362 71.497C271.767 90.9432 261.199 130.258 279.377 145.054C297.554 159.85 300.211 192.461 284.45 210.156C268.42 228.15 256.446 199.604 281.491 193.67C297.309 189.922 310.737 191.737 326.163 213.596C337.081 229.066 356.991 281.082 366.989 315.66C376.988 350.236 369.425 367.546 334.912 363.984C297.146 360.085 281.386 328.883 256.66 328.127C227.431 327.235 223.576 323.47 221.607 320.763C219.637 318.055 220.97 316.312 220.97 316.312C220.97 316.312 214.397 311.822 218.028 307.828C221.069 304.484 228.354 312.62 227.123 313.605C225.892 314.59 221.954 307.206 221.954 307.206C217.769 303.021 215.801 299.822 218.262 296.868C220.724 293.915 231.8 304.252 229.092 304.744C226.385 305.237 218.016 291.945 222.693 288.746C227.37 285.546 230.816 292.437 235.738 292.93C240.661 293.422 241.399 290.715 241.399 290.715C231.308 291.207 224.662 284.808 223.923 281.361C223.185 277.916 232.292 279.146 238.692 279.638C245.091 280.13 251.909 282.244 264.888 294.436C277.866 306.628 307.467 314.394 322.363 316.087C341.715 318.286 349.193 324.884 349.193 324.884C349.193 324.884 364.207 330.754 377.067 349.272C389.926 367.789 427.476 391.965 471.199 368.304" stroke="#1B1B1B" stroke-miterlimit="10" stroke-linecap="round" stroke-linejoin="round"/>
<path d="M151.472 194.455C150.499 195.103 135.902 193.806 127.793 210.348C119.684 226.891 124.873 263.221 120.332 266.464C120.332 266.464 132.935 268.05 133.514 273.646C134.093 279.241 118.078 274.803 111.132 278.662C104.186 282.521 99.3629 296.992 103.8 298.921C108.237 300.85 114.798 282.714 128.497 283.1C142.196 283.486 128.883 291.203 122.901 293.519C116.92 295.834 112.29 303.938 113.061 310.691C113.832 317.444 121.164 315.514 121.551 315.514C121.937 315.514 124.445 319.373 130.426 316.865C136.408 314.356 136.037 310.281 136.037 310.281C136.037 310.281 155.612 316.284 177.698 309.339C177.698 309.339 177.611 265.121 176.784 264.442C172.809 261.18 133.843 263.106 133.675 265.11C133.508 267.115 160.324 269.764 174.779 265.778C174.779 265.778 146.708 262.938 133.842 268.285L136.048 310.261C136.048 310.261 142.021 312.784 145.356 316.653C154.901 327.726 159.972 345.715 141.076 359.861C121.598 374.442 110.659 349.125 110.148 338.646C109.637 328.166 116.794 317.43 116.794 317.43C116.794 317.43 122.486 313 119.785 334.945C117.084 356.89 98.5151 377.822 78.5957 373.433C58.6763 369.044 25.1117 343.423 -13.2185 375.257" stroke="#1B1B1B" stroke-miterlimit="10" stroke-linecap="round" stroke-linejoin="round"/>
<path d="M248.097 280.69L256.002 268.833C259.544 263.519 263.552 255.901 261.286 250.867C258.213 244.044 249.9 247.369 243.272 252.294C201.969 282.994 178.175 227.939 202.538 197.011C216.615 179.143 195.558 154.194 195.558 154.194" stroke="#1B1B1B" stroke-miterlimit="10" stroke-linecap="round" stroke-linejoin="round"/>
</g>
</svg>
