<svg width="556" height="269" viewBox="0 0 556 269" fill="none" xmlns="http://www.w3.org/2000/svg">
<path d="M317.859 82.2566C317.961 81.2269 318.097 80.2007 318.268 79.1826C318.268 79.1826 300.837 78.9878 299.405 58.0389C299.405 58.0389 300.479 61.9778 294.033 68.2447C287.587 74.5115 287.517 82.9259 290.561 86.6857C290.561 86.6857 281.608 83.4627 283.399 74.8684C283.399 74.8684 279.46 82.3886 272.656 82.2094L309.056 123.077L317.501 89.2646C317.501 89.2646 335.566 89.5887 341.85 107.012C348.134 124.436 347.848 150.143 352.133 155.856C352.133 155.856 345.563 153 340.708 154.428C340.708 154.428 324.712 137.575 322.141 139.004C319.571 140.432 333.232 153.835 333.803 154.121C334.374 154.407 329.231 154.972 327.517 158.971C325.803 162.97 314.715 173.851 308.717 174.423C302.719 174.994 271.584 174.708 263.301 172.994C255.018 171.28 246.448 172.709 250.161 174.993C253.874 177.278 259.588 170.424 257.017 152.713C254.446 135.003 259.302 118.437 259.302 118.437" stroke="#6A665F" stroke-miterlimit="10" stroke-linecap="round" stroke-linejoin="round"/>
<path d="M318.134 79.1655C326.728 78.6281 329.056 74.1518 333.711 71.6454C338.366 69.1389 342.484 65.3785 343.2 60.7231C343.917 56.0677 349.467 54.8145 350.9 48.9059C350.9 48.9059 353.048 61.2605 349.467 70.3914C345.886 79.5224 335.872 90.8391 341.589 98.6813C351.116 111.749 346.782 118.555 334.606 116.944C323.159 115.429 316.263 98.4208 317.859 82.2558" stroke="#6A665F" stroke-miterlimit="10" stroke-linecap="round" stroke-linejoin="round"/>
<path d="M0.500122 263.247C0.500122 263.247 60.5516 237.066 117.768 245.24C174.983 253.413 215.766 249.194 241.183 236.27C268.867 222.193 271.544 201.462 263.916 200.735C256.288 200.008 262.463 214.175 293.338 198.555C324.213 182.936 352.183 158.599 352.183 158.599L375.235 165.265L407.58 146.045L398.673 169.718C398.673 169.718 401.017 170.421 402.189 178.39C403.361 186.359 399.845 191.281 398.438 191.281C397.032 191.281 396.243 169.758 389.766 165.968C384.519 162.898 385.711 169.673 387.586 176C389.461 182.329 388.126 188.468 388.126 188.468C388.126 188.468 382.151 168.846 378.411 170.583C375.428 171.968 380.157 195.968 382.501 194.562C384.845 193.156 378.255 174.252 374.271 175.659C370.286 177.065 376.876 188.469 372.657 196.203L345.599 215.599C345.599 215.599 290.667 195.493 268.407 197.288C246.146 199.083 231.426 204.109 227.117 189.748C222.809 175.387 227.567 128.278 223.736 108.235C219.904 88.1931 236.704 77.288 250.852 76.4032C250.852 76.4032 248.915 66.8682 256.928 60.2493C264.94 53.6303 271.908 57.1138 276.437 40.3923C280.966 23.6708 294.204 5.20728 312.319 1.37509C330.433 -2.4571 345.413 6.94868 352.381 17.0518C359.349 27.1543 357.955 40.0443 355.168 38.6509C352.381 37.2575 357.258 30.9865 349.246 29.5931C341.233 28.1997 331.128 23.0719 323.043 33.6988C318.064 40.2419 307.544 41.9498 307.093 36.5608C306.409 28.3857 303.174 24.2274 300.171 25.8443C294.81 28.731 292.995 36.1916 294.954 42.2424C296.387 46.6694 301.454 48.9236 305.473 46.5806C305.92 46.3201 306.289 46.0288 306.532 45.704C307.993 43.7568 305.078 41.1382 302.476 42.7832C298.35 45.3929 299.404 57.7688 299.404 57.7688" stroke="#6A665F" stroke-miterlimit="10" stroke-linecap="round" stroke-linejoin="round"/>
<path d="M250.709 74.6161C251.793 93.5473 281.696 104.552 281.696 104.552L274.672 107.713L307.843 131.208C310.94 133.401 312.854 136.897 313.034 140.687L314.316 167.582" stroke="#6A665F" stroke-miterlimit="10" stroke-linecap="round" stroke-linejoin="round"/>
<path d="M398.654 170.127C398.654 170.127 400.421 192.39 380.37 203.203C358.642 214.919 327.556 227.307 334.37 246.658C340.31 263.527 377.527 266.883 446.394 236.701C515.261 206.519 555.5 268.086 555.5 268.086" stroke="#6A665F" stroke-miterlimit="10" stroke-linecap="round" stroke-linejoin="round"/>
</svg>
