<svg width="210" height="443" viewBox="0 0 210 443" fill="none" xmlns="http://www.w3.org/2000/svg">
<path d="M76.7262 75.0781C64.6692 111.867 72.5112 201.358 78.8892 262.929C80.6302 279.736 82.1222 297.459 76.1252 313.073C75.6452 314.322 73.8472 314.213 73.5442 312.91C69.1692 294.092 64.6402 275.271 57.9972 257.136C56.3252 252.571 54.5122 248.023 53.6042 243.247C52.7802 238.913 52.7192 234.475 52.6602 230.063C52.4652 215.422 54.4662 189.156 52.1132 188.999C49.6742 189.928 49.9202 200.671 50.0082 208.034L50.3222 234.334C50.3382 235.706 48.4322 236.094 47.9202 234.82C44.9552 227.445 42.5002 219.865 40.5812 212.151C39.7432 208.782 39.0062 205.238 39.8482 201.87C41.7102 194.419 50.5572 190.263 52.2482 182.771C53.9262 175.338 47.9652 168.628 45.0402 161.592C43.1522 157.051 42.5112 152.108 41.4442 147.307C38.7082 134.996 33.0392 123.347 25.0382 113.599C23.7882 112.076 22.1202 110.456 20.1732 110.756C19.0032 110.936 18.0612 111.788 17.2422 112.643C11.3622 118.783 7.95219 127.226 7.92019 135.728C7.91619 136.694 7.33518 137.917 6.68018 138.392C5.84218 138.999 5.19619 139.822 5.01319 140.84C3.71019 148.096 3.47119 155.544 4.31419 162.868C2.36419 162.304 1.07619 164.877 0.815193 166.891C-0.050807 173.553 0.880185 180.437 3.45419 186.641C4.00819 187.975 3.72618 189.517 2.68418 190.517C2.10318 191.074 1.61218 191.744 1.59818 192.422C1.47118 198.538 3.42818 204.69 7.07018 209.605C7.75118 210.524 8.05019 211.739 7.59119 212.786C6.85119 214.475 8.03319 217.189 9.40119 218.901C11.3252 221.311 13.3122 223.396 15.2692 225.64C16.6062 227.174 18.3992 228.237 20.3932 228.648C29.7662 230.577 39.3962 233.312 45.4272 240.575C48.7992 244.635 50.6592 249.705 52.4582 254.666C56.0412 264.547 59.6242 274.429 63.2072 284.31C65.3502 290.219 67.5232 296.313 67.2772 302.593C67.0652 308.017 64.6072 313.671 60.1682 316.581C59.0122 317.338 57.4502 316.87 56.8882 315.608C52.3332 305.381 52.1402 293.625 49.1842 282.747C46.1112 271.441 39.9352 260.996 31.5092 252.856C30.6482 252.024 29.3812 251.165 28.3602 251.791C27.6762 252.211 27.4802 253.115 26.9402 253.71C25.6742 255.105 23.3842 254.236 21.5222 254.521C17.6732 255.111 16.7212 260.152 16.6952 264.046C16.6682 267.962 16.6672 272.009 18.2232 275.603C19.4732 278.491 21.6372 280.867 23.7172 283.229C35.2132 296.284 45.2472 310.625 53.5752 325.897C54.0062 326.687 52.9962 327.482 52.3202 326.887C50.8282 325.575 49.5132 324.024 48.1902 322.531C43.2762 316.986 37.8362 311.907 31.9662 307.386C24.3162 301.493 15.3882 296.403 5.83518 295.947C4.57818 295.887 3.75319 297.265 4.39619 298.347C5.72819 300.591 8.13519 302.277 10.3922 303.747C22.1932 311.435 33.9942 319.122 45.7952 326.809C50.0472 329.579 54.3982 332.441 57.3812 336.546C61.3452 342.001 63.1382 349.769 68.4792 353.303C69.4712 353.959 70.8142 353.325 70.9742 352.146C71.8022 346.027 71.9172 339.716 69.7622 333.968C68.5442 330.719 66.6432 327.774 65.1982 324.62C60.7902 314.997 60.8502 304.108 61.5892 293.448C61.6422 292.688 60.5482 292.489 60.3432 293.223C58.2162 300.836 57.9232 308.945 58.3352 316.878C58.7332 324.544 59.7742 332.242 62.3692 339.467C64.2082 344.588 66.8002 349.399 69.3812 354.189L74.7622 364.171C75.1752 364.938 76.3562 364.522 76.1802 363.668C75.3252 359.529 74.9742 355.285 75.1432 351.062C75.5032 342.093 78.1722 333.38 79.2172 324.464C80.1672 316.361 79.5532 307.557 75.1432 300.821C74.7212 300.176 73.7162 300.497 73.7212 301.268C73.8162 316.089 73.2952 330.913 72.1602 345.691C71.6202 352.72 70.9602 359.939 72.9672 366.696C74.2702 371.084 78.0292 377.365 76.4702 377.685C75.0122 378.511 65.8562 360.325 60.1032 349.23C59.8082 348.661 58.9482 348.948 59.0482 349.582C59.6432 353.375 61.8672 360.93 64.0572 364.901C64.5602 365.813 63.6592 366.849 62.6912 366.464L58.0842 364.634C57.5122 364.407 57.0012 365.095 57.3912 365.571C59.4432 368.082 61.9792 370.197 64.8222 371.758C68.2132 373.62 72.4552 375.163 73.5622 378.87C73.9972 380.326 73.8412 381.884 73.6802 383.395C73.3112 386.88 72.9772 389.698 72.8332 393.199C72.1732 409.186 69.6802 425.096 65.4172 440.518C68.1942 442.041 71.4802 442.617 74.6102 442.129C74.1462 424.808 79.8542 394.413 83.2332 390.696C99.2622 373.057 113.488 353.019 121.554 330.591C123.711 324.766 126.699 319.12 128.307 316.24C128.958 315.075 130.207 314.381 131.54 314.445C144.854 315.088 156.907 306.118 169.272 300.565C174.082 298.405 179.262 296.628 183.006 292.915C184.792 291.144 186.165 289.009 187.517 286.887C190.592 282.061 193.667 277.234 196.741 272.408C198.338 269.899 199.972 267.379 201.036 264.599C202.295 261.311 202.739 257.703 204.443 254.622C205.757 252.247 207.803 250.21 208.423 247.568C209.121 244.59 207.855 241.542 206.616 238.745C205.128 235.386 203.386 231.758 200.063 230.192C198.019 229.229 195.675 229.207 193.416 229.203C191.395 229.2 189.374 229.196 187.353 229.193C186.413 229.191 185.455 229.193 184.559 229.476C183.313 229.871 182.304 230.771 181.316 231.628C174.811 237.27 167.511 241.994 159.699 245.618C155.124 247.74 150.371 249.489 145.932 251.884C141.971 254.021 138.283 256.665 134.987 259.731C134.331 260.341 133.67 260.998 133.357 261.837C132.306 264.651 135.587 267.577 134.922 270.507C134.424 272.7 131.951 273.867 130.995 275.902C129.933 278.162 130.981 280.865 130.481 283.312C130.113 285.112 128.944 286.624 128.095 288.254C125.068 294.07 126.227 301.061 125.71 307.597C125.197 314.083 122.973 320.301 120.61 326.364C112.455 347.293 100.615 368.71 84.1382 382.324C82.8152 383.418 80.8072 382.469 80.7862 380.752C80.5142 357.851 80.6132 334.702 86.5812 312.626C87.9432 307.588 89.6802 302.495 93.0522 298.512C95.8262 295.236 99.9342 292.84 104.146 292.696C105.255 292.658 105.844 293.982 105.133 294.834C96.6992 304.928 96.0222 319.649 93.3722 332.783C90.8022 345.519 85.9332 357.646 80.8962 369.638C80.5602 370.439 79.3762 370.211 79.3482 369.344C78.1632 332.634 88.1052 295.426 83.4252 259.229C76.5422 205.992 72.2222 135.304 74.5622 103.211C75.1642 94.9491 75.8742 86.4991 78.7992 78.6771C82.0422 70.0031 88.0172 63.9811 95.8562 59.2761C97.6662 58.1891 99.6672 57.0871 101.965 58.4651C103.665 59.4841 104.662 61.3771 104.768 63.3571C105.019 68.0591 102.742 72.6591 99.1272 75.5771C98.1052 76.4021 96.6222 75.3851 97.0002 74.1271C99.0842 67.1831 100.325 59.7351 97.0832 53.4181C95.4502 50.2361 92.6832 47.2811 92.9372 43.7141C93.1472 40.7611 95.4482 38.2531 95.5942 35.2971C95.7452 32.2411 93.5782 29.5861 91.3402 27.4991C87.0942 23.5391 82.1092 20.3721 76.7192 18.2121C73.6852 16.9961 70.1592 16.1201 67.2322 17.5771C64.6362 18.8691 63.1962 21.6541 61.9262 24.2611C58.6612 30.9631 55.3612 38.8151 58.4942 45.5801C60.1152 49.0801 63.2162 51.6231 65.6832 54.5881C68.6822 58.1911 70.7952 62.5261 71.7772 67.1111C71.9602 67.9661 72.5712 68.7091 73.4272 68.8841C74.4072 69.0841 74.8952 68.5211 75.2312 67.8921C76.1922 66.0881 76.6752 64.0781 76.9342 62.0511C78.0302 53.4531 82.3812 45.3521 88.8292 39.5851C89.8792 38.6461 89.0012 36.9251 87.6332 37.2611C85.5382 37.7751 83.4942 39.4281 82.1052 41.2011C75.8662 49.1681 74.7052 60.0151 75.4702 70.1051C75.5122 70.6621 75.5882 71.2781 76.0102 71.6441C76.7792 72.3121 77.9552 71.6511 78.7012 70.9571C83.0742 66.8881 86.1582 61.2001 91.5592 58.6501C93.8382 57.5741 96.4062 57.1331 98.5512 55.8121C99.7722 55.0601 100.837 53.8561 101.336 52.5351C101.829 51.2311 103.626 50.9501 104.507 52.0301C105.39 53.1121 106.045 54.3811 106.389 55.7351C107.578 60.4231 105.233 65.8961 109.504 69.6221C111.842 71.6621 115.139 72.1111 118.107 71.2081C124.443 69.2801 127.795 63.6491 131.696 58.8171C133.147 57.0201 134.723 55.2751 135.675 53.1711C137.372 49.4221 136.753 44.7341 134.141 41.5541C131.529 38.3741 127.05 36.8561 123.043 37.7921C119.642 38.5871 116.479 40.9891 113.028 40.4541C112.268 40.3361 111.473 40.0451 111.371 38.9291C111.281 37.9421 111.898 37.0221 112.79 36.5881C116.757 34.6571 121.243 32.3601 123.028 28.2151C124.928 23.8011 123.154 18.6541 120.616 14.5741C118.577 11.2971 115.853 8.19408 112.188 6.98108C111.467 6.74208 110.596 6.60808 110.013 7.09508C109.492 7.53108 109.412 8.28708 109.353 8.96408C108.849 14.7591 107.071 20.4381 104.202 25.4971C103.607 26.5461 104.869 27.6861 105.852 26.9871C110.536 23.6541 113.054 17.2141 111.504 11.5791C109.581 4.58508 102.013 -0.229921 94.8052 0.591079C89.8862 1.15108 85.4662 3.92908 81.5452 6.86008C79.6422 8.28308 77.8112 9.80108 76.0832 11.4311C75.2112 12.2531 74.3832 13.1431 73.9032 14.2341C72.2362 18.0201 75.3672 22.2101 78.7622 24.5721C86.4752 29.9381 96.4312 31.4661 103.869 37.2071C104.928 38.0241 105.997 39.0391 105.96 40.4651C105.935 41.4461 105.151 42.3221 104.175 42.2171C102.856 42.0751 102.508 40.3771 101.595 39.4421C100.283 38.0981 97.8172 38.6541 96.6872 40.1541C95.5572 41.6541 95.4852 43.7051 95.7882 45.5581C96.1902 48.0161 97.3722 50.5931 99.7162 51.5181C101.4 52.1831 103.409 51.6141 104.362 50.0741C105.224 48.6821 104.543 47.5461 104.212 46.3481C103.774 44.7621 104.111 42.7441 105.773 42.1321C107.196 41.6081 108.423 42.3341 108.247 43.8401C108.083 45.2411 106.157 45.5991 105.824 46.8861C105.664 47.5051 105.936 48.1541 106.279 48.6941C107.159 50.0811 108.623 51.1581 110.26 51.2951C111.897 51.4321 113.643 50.4801 114.173 48.9251C114.802 47.0831 113.681 45.1111 112.392 43.6531C111.103 42.1951 109.539 40.8321 109.028 38.9531C108.481 36.9421 109.138 34.4601 108.784 32.5331C108.528 31.1361 106.835 30.5281 105.761 31.4571C104.543 32.5101 103.726 34.0371 103.603 35.6461C103.427 37.9471 104.68 40.2981 106.689 41.4351" stroke="#9D674E" stroke-miterlimit="10"/>
</svg>
